<?xml version="1.0" encoding="utf-8" standalone="no"?>
<!DOCTYPE svg PUBLIC "-//W3C//DTD SVG 1.1//EN"
  "http://www.w3.org/Graphics/SVG/1.1/DTD/svg11.dtd">
<svg xmlns:xlink="http://www.w3.org/1999/xlink" width="669.928232pt" height="275.78975pt" viewBox="0 0 669.928232 275.78975" xmlns="http://www.w3.org/2000/svg" version="1.1">
 <metadata>
  <rdf:RDF xmlns:dc="http://purl.org/dc/elements/1.1/" xmlns:cc="http://creativecommons.org/ns#" xmlns:rdf="http://www.w3.org/1999/02/22-rdf-syntax-ns#">
   <cc:Work>
    <dc:type rdf:resource="http://purl.org/dc/dcmitype/StillImage"/>
    <dc:date>2022-07-20T20:28:00.960710</dc:date>
    <dc:format>image/svg+xml</dc:format>
    <dc:creator>
     <cc:Agent>
      <dc:title>Matplotlib v3.5.1, https://matplotlib.org/</dc:title>
     </cc:Agent>
    </dc:creator>
   </cc:Work>
  </rdf:RDF>
 </metadata>
 <defs>
  <style type="text/css">*{stroke-linejoin: round; stroke-linecap: butt}</style>
 </defs>
 <g id="figure_1">
  <g id="patch_1">
   <path d="M 0 275.78975 
L 669.928232 275.78975 
L 669.928232 0 
L 0 0 
z
" style="fill: #ffffff"/>
  </g>
  <g id="axes_1">
   <g id="patch_2">
    <path d="M 322.186875 238.098 
L 656.986875 238.098 
L 656.986875 20.658 
L 322.186875 20.658 
z
" style="fill: #ffffff"/>
   </g>
   <g id="matplotlib.axis_1">
    <g id="xtick_1">
     <g id="line2d_1">
      <path d="M 322.186875 238.098 
L 322.186875 20.658 
" clip-path="url(#pfe9ca8172d)" style="fill: none; stroke: #cccccc; stroke-width: 0.8; stroke-linecap: round"/>
     </g>
     <g id="text_1">
      <!-- 0 -->
      <g style="fill: #262626" transform="translate(319.387375 253.084625)scale(0.088 -0.088)">
       <defs>
        <path id="DejaVuSans-30" d="M 2034 4250 
Q 1547 4250 1301 3770 
Q 1056 3291 1056 2328 
Q 1056 1369 1301 889 
Q 1547 409 2034 409 
Q 2525 409 2770 889 
Q 3016 1369 3016 2328 
Q 3016 3291 2770 3770 
Q 2525 4250 2034 4250 
z
M 2034 4750 
Q 2819 4750 3233 4129 
Q 3647 3509 3647 2328 
Q 3647 1150 3233 529 
Q 2819 -91 2034 -91 
Q 1250 -91 836 529 
Q 422 1150 422 2328 
Q 422 3509 836 4129 
Q 1250 4750 2034 4750 
z
" transform="scale(0.015625)"/>
       </defs>
       <use xlink:href="#DejaVuSans-30"/>
      </g>
     </g>
    </g>
    <g id="xtick_2">
     <g id="line2d_2">
      <path d="M 388.615446 238.098 
L 388.615446 20.658 
" clip-path="url(#pfe9ca8172d)" style="fill: none; stroke: #cccccc; stroke-width: 0.8; stroke-linecap: round"/>
     </g>
     <g id="text_2">
      <!-- 50 -->
      <g style="fill: #262626" transform="translate(383.016446 253.084625)scale(0.088 -0.088)">
       <defs>
        <path id="DejaVuSans-35" d="M 691 4666 
L 3169 4666 
L 3169 4134 
L 1269 4134 
L 1269 2991 
Q 1406 3038 1543 3061 
Q 1681 3084 1819 3084 
Q 2600 3084 3056 2656 
Q 3513 2228 3513 1497 
Q 3513 744 3044 326 
Q 2575 -91 1722 -91 
Q 1428 -91 1123 -41 
Q 819 9 494 109 
L 494 744 
Q 775 591 1075 516 
Q 1375 441 1709 441 
Q 2250 441 2565 725 
Q 2881 1009 2881 1497 
Q 2881 1984 2565 2268 
Q 2250 2553 1709 2553 
Q 1456 2553 1204 2497 
Q 953 2441 691 2322 
L 691 4666 
z
" transform="scale(0.015625)"/>
       </defs>
       <use xlink:href="#DejaVuSans-35"/>
       <use xlink:href="#DejaVuSans-30" x="63.623047"/>
      </g>
     </g>
    </g>
    <g id="xtick_3">
     <g id="line2d_3">
      <path d="M 455.044018 238.098 
L 455.044018 20.658 
" clip-path="url(#pfe9ca8172d)" style="fill: none; stroke: #cccccc; stroke-width: 0.8; stroke-linecap: round"/>
     </g>
     <g id="text_3">
      <!-- 100 -->
      <g style="fill: #262626" transform="translate(446.645518 253.084625)scale(0.088 -0.088)">
       <defs>
        <path id="DejaVuSans-31" d="M 794 531 
L 1825 531 
L 1825 4091 
L 703 3866 
L 703 4441 
L 1819 4666 
L 2450 4666 
L 2450 531 
L 3481 531 
L 3481 0 
L 794 0 
L 794 531 
z
" transform="scale(0.015625)"/>
       </defs>
       <use xlink:href="#DejaVuSans-31"/>
       <use xlink:href="#DejaVuSans-30" x="63.623047"/>
       <use xlink:href="#DejaVuSans-30" x="127.246094"/>
      </g>
     </g>
    </g>
    <g id="xtick_4">
     <g id="line2d_4">
      <path d="M 521.472589 238.098 
L 521.472589 20.658 
" clip-path="url(#pfe9ca8172d)" style="fill: none; stroke: #cccccc; stroke-width: 0.8; stroke-linecap: round"/>
     </g>
     <g id="text_4">
      <!-- 150 -->
      <g style="fill: #262626" transform="translate(513.074089 253.084625)scale(0.088 -0.088)">
       <use xlink:href="#DejaVuSans-31"/>
       <use xlink:href="#DejaVuSans-35" x="63.623047"/>
       <use xlink:href="#DejaVuSans-30" x="127.246094"/>
      </g>
     </g>
    </g>
    <g id="xtick_5">
     <g id="line2d_5">
      <path d="M 587.901161 238.098 
L 587.901161 20.658 
" clip-path="url(#pfe9ca8172d)" style="fill: none; stroke: #cccccc; stroke-width: 0.8; stroke-linecap: round"/>
     </g>
     <g id="text_5">
      <!-- 200 -->
      <g style="fill: #262626" transform="translate(579.502661 253.084625)scale(0.088 -0.088)">
       <defs>
        <path id="DejaVuSans-32" d="M 1228 531 
L 3431 531 
L 3431 0 
L 469 0 
L 469 531 
Q 828 903 1448 1529 
Q 2069 2156 2228 2338 
Q 2531 2678 2651 2914 
Q 2772 3150 2772 3378 
Q 2772 3750 2511 3984 
Q 2250 4219 1831 4219 
Q 1534 4219 1204 4116 
Q 875 4013 500 3803 
L 500 4441 
Q 881 4594 1212 4672 
Q 1544 4750 1819 4750 
Q 2544 4750 2975 4387 
Q 3406 4025 3406 3419 
Q 3406 3131 3298 2873 
Q 3191 2616 2906 2266 
Q 2828 2175 2409 1742 
Q 1991 1309 1228 531 
z
" transform="scale(0.015625)"/>
       </defs>
       <use xlink:href="#DejaVuSans-32"/>
       <use xlink:href="#DejaVuSans-30" x="63.623047"/>
       <use xlink:href="#DejaVuSans-30" x="127.246094"/>
      </g>
     </g>
    </g>
    <g id="xtick_6">
     <g id="line2d_6">
      <path d="M 654.329732 238.098 
L 654.329732 20.658 
" clip-path="url(#pfe9ca8172d)" style="fill: none; stroke: #cccccc; stroke-width: 0.8; stroke-linecap: round"/>
     </g>
     <g id="text_6">
      <!-- 250 -->
      <g style="fill: #262626" transform="translate(645.931232 253.084625)scale(0.088 -0.088)">
       <use xlink:href="#DejaVuSans-32"/>
       <use xlink:href="#DejaVuSans-35" x="63.623047"/>
       <use xlink:href="#DejaVuSans-30" x="127.246094"/>
      </g>
     </g>
    </g>
    <g id="text_7">
     <!-- Número de respondentes (N = 267) -->
     <g style="fill: #262626" transform="translate(403.649625 266.59325)scale(0.096 -0.096)">
      <defs>
       <path id="DejaVuSans-4e" d="M 628 4666 
L 1478 4666 
L 3547 763 
L 3547 4666 
L 4159 4666 
L 4159 0 
L 3309 0 
L 1241 3903 
L 1241 0 
L 628 0 
L 628 4666 
z
" transform="scale(0.015625)"/>
       <path id="DejaVuSans-fa" d="M 544 1381 
L 544 3500 
L 1119 3500 
L 1119 1403 
Q 1119 906 1312 657 
Q 1506 409 1894 409 
Q 2359 409 2629 706 
Q 2900 1003 2900 1516 
L 2900 3500 
L 3475 3500 
L 3475 0 
L 2900 0 
L 2900 538 
Q 2691 219 2414 64 
Q 2138 -91 1772 -91 
Q 1169 -91 856 284 
Q 544 659 544 1381 
z
M 1991 3584 
L 1991 3584 
z
M 2418 5119 
L 3040 5119 
L 2022 3944 
L 1543 3944 
L 2418 5119 
z
" transform="scale(0.015625)"/>
       <path id="DejaVuSans-6d" d="M 3328 2828 
Q 3544 3216 3844 3400 
Q 4144 3584 4550 3584 
Q 5097 3584 5394 3201 
Q 5691 2819 5691 2113 
L 5691 0 
L 5113 0 
L 5113 2094 
Q 5113 2597 4934 2840 
Q 4756 3084 4391 3084 
Q 3944 3084 3684 2787 
Q 3425 2491 3425 1978 
L 3425 0 
L 2847 0 
L 2847 2094 
Q 2847 2600 2669 2842 
Q 2491 3084 2119 3084 
Q 1678 3084 1418 2786 
Q 1159 2488 1159 1978 
L 1159 0 
L 581 0 
L 581 3500 
L 1159 3500 
L 1159 2956 
Q 1356 3278 1631 3431 
Q 1906 3584 2284 3584 
Q 2666 3584 2933 3390 
Q 3200 3197 3328 2828 
z
" transform="scale(0.015625)"/>
       <path id="DejaVuSans-65" d="M 3597 1894 
L 3597 1613 
L 953 1613 
Q 991 1019 1311 708 
Q 1631 397 2203 397 
Q 2534 397 2845 478 
Q 3156 559 3463 722 
L 3463 178 
Q 3153 47 2828 -22 
Q 2503 -91 2169 -91 
Q 1331 -91 842 396 
Q 353 884 353 1716 
Q 353 2575 817 3079 
Q 1281 3584 2069 3584 
Q 2775 3584 3186 3129 
Q 3597 2675 3597 1894 
z
M 3022 2063 
Q 3016 2534 2758 2815 
Q 2500 3097 2075 3097 
Q 1594 3097 1305 2825 
Q 1016 2553 972 2059 
L 3022 2063 
z
" transform="scale(0.015625)"/>
       <path id="DejaVuSans-72" d="M 2631 2963 
Q 2534 3019 2420 3045 
Q 2306 3072 2169 3072 
Q 1681 3072 1420 2755 
Q 1159 2438 1159 1844 
L 1159 0 
L 581 0 
L 581 3500 
L 1159 3500 
L 1159 2956 
Q 1341 3275 1631 3429 
Q 1922 3584 2338 3584 
Q 2397 3584 2469 3576 
Q 2541 3569 2628 3553 
L 2631 2963 
z
" transform="scale(0.015625)"/>
       <path id="DejaVuSans-6f" d="M 1959 3097 
Q 1497 3097 1228 2736 
Q 959 2375 959 1747 
Q 959 1119 1226 758 
Q 1494 397 1959 397 
Q 2419 397 2687 759 
Q 2956 1122 2956 1747 
Q 2956 2369 2687 2733 
Q 2419 3097 1959 3097 
z
M 1959 3584 
Q 2709 3584 3137 3096 
Q 3566 2609 3566 1747 
Q 3566 888 3137 398 
Q 2709 -91 1959 -91 
Q 1206 -91 779 398 
Q 353 888 353 1747 
Q 353 2609 779 3096 
Q 1206 3584 1959 3584 
z
" transform="scale(0.015625)"/>
       <path id="DejaVuSans-20" transform="scale(0.015625)"/>
       <path id="DejaVuSans-64" d="M 2906 2969 
L 2906 4863 
L 3481 4863 
L 3481 0 
L 2906 0 
L 2906 525 
Q 2725 213 2448 61 
Q 2172 -91 1784 -91 
Q 1150 -91 751 415 
Q 353 922 353 1747 
Q 353 2572 751 3078 
Q 1150 3584 1784 3584 
Q 2172 3584 2448 3432 
Q 2725 3281 2906 2969 
z
M 947 1747 
Q 947 1113 1208 752 
Q 1469 391 1925 391 
Q 2381 391 2643 752 
Q 2906 1113 2906 1747 
Q 2906 2381 2643 2742 
Q 2381 3103 1925 3103 
Q 1469 3103 1208 2742 
Q 947 2381 947 1747 
z
" transform="scale(0.015625)"/>
       <path id="DejaVuSans-73" d="M 2834 3397 
L 2834 2853 
Q 2591 2978 2328 3040 
Q 2066 3103 1784 3103 
Q 1356 3103 1142 2972 
Q 928 2841 928 2578 
Q 928 2378 1081 2264 
Q 1234 2150 1697 2047 
L 1894 2003 
Q 2506 1872 2764 1633 
Q 3022 1394 3022 966 
Q 3022 478 2636 193 
Q 2250 -91 1575 -91 
Q 1294 -91 989 -36 
Q 684 19 347 128 
L 347 722 
Q 666 556 975 473 
Q 1284 391 1588 391 
Q 1994 391 2212 530 
Q 2431 669 2431 922 
Q 2431 1156 2273 1281 
Q 2116 1406 1581 1522 
L 1381 1569 
Q 847 1681 609 1914 
Q 372 2147 372 2553 
Q 372 3047 722 3315 
Q 1072 3584 1716 3584 
Q 2034 3584 2315 3537 
Q 2597 3491 2834 3397 
z
" transform="scale(0.015625)"/>
       <path id="DejaVuSans-70" d="M 1159 525 
L 1159 -1331 
L 581 -1331 
L 581 3500 
L 1159 3500 
L 1159 2969 
Q 1341 3281 1617 3432 
Q 1894 3584 2278 3584 
Q 2916 3584 3314 3078 
Q 3713 2572 3713 1747 
Q 3713 922 3314 415 
Q 2916 -91 2278 -91 
Q 1894 -91 1617 61 
Q 1341 213 1159 525 
z
M 3116 1747 
Q 3116 2381 2855 2742 
Q 2594 3103 2138 3103 
Q 1681 3103 1420 2742 
Q 1159 2381 1159 1747 
Q 1159 1113 1420 752 
Q 1681 391 2138 391 
Q 2594 391 2855 752 
Q 3116 1113 3116 1747 
z
" transform="scale(0.015625)"/>
       <path id="DejaVuSans-6e" d="M 3513 2113 
L 3513 0 
L 2938 0 
L 2938 2094 
Q 2938 2591 2744 2837 
Q 2550 3084 2163 3084 
Q 1697 3084 1428 2787 
Q 1159 2491 1159 1978 
L 1159 0 
L 581 0 
L 581 3500 
L 1159 3500 
L 1159 2956 
Q 1366 3272 1645 3428 
Q 1925 3584 2291 3584 
Q 2894 3584 3203 3211 
Q 3513 2838 3513 2113 
z
" transform="scale(0.015625)"/>
       <path id="DejaVuSans-74" d="M 1172 4494 
L 1172 3500 
L 2356 3500 
L 2356 3053 
L 1172 3053 
L 1172 1153 
Q 1172 725 1289 603 
Q 1406 481 1766 481 
L 2356 481 
L 2356 0 
L 1766 0 
Q 1100 0 847 248 
Q 594 497 594 1153 
L 594 3053 
L 172 3053 
L 172 3500 
L 594 3500 
L 594 4494 
L 1172 4494 
z
" transform="scale(0.015625)"/>
       <path id="DejaVuSans-28" d="M 1984 4856 
Q 1566 4138 1362 3434 
Q 1159 2731 1159 2009 
Q 1159 1288 1364 580 
Q 1569 -128 1984 -844 
L 1484 -844 
Q 1016 -109 783 600 
Q 550 1309 550 2009 
Q 550 2706 781 3412 
Q 1013 4119 1484 4856 
L 1984 4856 
z
" transform="scale(0.015625)"/>
       <path id="DejaVuSans-3d" d="M 678 2906 
L 4684 2906 
L 4684 2381 
L 678 2381 
L 678 2906 
z
M 678 1631 
L 4684 1631 
L 4684 1100 
L 678 1100 
L 678 1631 
z
" transform="scale(0.015625)"/>
       <path id="DejaVuSans-36" d="M 2113 2584 
Q 1688 2584 1439 2293 
Q 1191 2003 1191 1497 
Q 1191 994 1439 701 
Q 1688 409 2113 409 
Q 2538 409 2786 701 
Q 3034 994 3034 1497 
Q 3034 2003 2786 2293 
Q 2538 2584 2113 2584 
z
M 3366 4563 
L 3366 3988 
Q 3128 4100 2886 4159 
Q 2644 4219 2406 4219 
Q 1781 4219 1451 3797 
Q 1122 3375 1075 2522 
Q 1259 2794 1537 2939 
Q 1816 3084 2150 3084 
Q 2853 3084 3261 2657 
Q 3669 2231 3669 1497 
Q 3669 778 3244 343 
Q 2819 -91 2113 -91 
Q 1303 -91 875 529 
Q 447 1150 447 2328 
Q 447 3434 972 4092 
Q 1497 4750 2381 4750 
Q 2619 4750 2861 4703 
Q 3103 4656 3366 4563 
z
" transform="scale(0.015625)"/>
       <path id="DejaVuSans-37" d="M 525 4666 
L 3525 4666 
L 3525 4397 
L 1831 0 
L 1172 0 
L 2766 4134 
L 525 4134 
L 525 4666 
z
" transform="scale(0.015625)"/>
       <path id="DejaVuSans-29" d="M 513 4856 
L 1013 4856 
Q 1481 4119 1714 3412 
Q 1947 2706 1947 2009 
Q 1947 1309 1714 600 
Q 1481 -109 1013 -844 
L 513 -844 
Q 928 -128 1133 580 
Q 1338 1288 1338 2009 
Q 1338 2731 1133 3434 
Q 928 4138 513 4856 
z
" transform="scale(0.015625)"/>
      </defs>
      <use xlink:href="#DejaVuSans-4e"/>
      <use xlink:href="#DejaVuSans-fa" x="74.804688"/>
      <use xlink:href="#DejaVuSans-6d" x="138.183594"/>
      <use xlink:href="#DejaVuSans-65" x="235.595703"/>
      <use xlink:href="#DejaVuSans-72" x="297.119141"/>
      <use xlink:href="#DejaVuSans-6f" x="335.982422"/>
      <use xlink:href="#DejaVuSans-20" x="397.164062"/>
      <use xlink:href="#DejaVuSans-64" x="428.951172"/>
      <use xlink:href="#DejaVuSans-65" x="492.427734"/>
      <use xlink:href="#DejaVuSans-20" x="553.951172"/>
      <use xlink:href="#DejaVuSans-72" x="585.738281"/>
      <use xlink:href="#DejaVuSans-65" x="624.601562"/>
      <use xlink:href="#DejaVuSans-73" x="686.125"/>
      <use xlink:href="#DejaVuSans-70" x="738.224609"/>
      <use xlink:href="#DejaVuSans-6f" x="801.701172"/>
      <use xlink:href="#DejaVuSans-6e" x="862.882812"/>
      <use xlink:href="#DejaVuSans-64" x="926.261719"/>
      <use xlink:href="#DejaVuSans-65" x="989.738281"/>
      <use xlink:href="#DejaVuSans-6e" x="1051.261719"/>
      <use xlink:href="#DejaVuSans-74" x="1114.640625"/>
      <use xlink:href="#DejaVuSans-65" x="1153.849609"/>
      <use xlink:href="#DejaVuSans-73" x="1215.373047"/>
      <use xlink:href="#DejaVuSans-20" x="1267.472656"/>
      <use xlink:href="#DejaVuSans-28" x="1299.259766"/>
      <use xlink:href="#DejaVuSans-4e" x="1338.273438"/>
      <use xlink:href="#DejaVuSans-20" x="1413.078125"/>
      <use xlink:href="#DejaVuSans-3d" x="1444.865234"/>
      <use xlink:href="#DejaVuSans-20" x="1528.654297"/>
      <use xlink:href="#DejaVuSans-32" x="1560.441406"/>
      <use xlink:href="#DejaVuSans-36" x="1624.064453"/>
      <use xlink:href="#DejaVuSans-37" x="1687.6875"/>
      <use xlink:href="#DejaVuSans-29" x="1751.310547"/>
     </g>
    </g>
   </g>
   <g id="matplotlib.axis_2">
    <g id="ytick_1">
     <g id="text_8">
      <!-- Ter medo de adoecer em função do coronavírus -->
      <g style="fill: #262626" transform="translate(103.53525 36.190625)scale(0.088 -0.088)">
       <defs>
        <path id="DejaVuSans-54" d="M -19 4666 
L 3928 4666 
L 3928 4134 
L 2272 4134 
L 2272 0 
L 1638 0 
L 1638 4134 
L -19 4134 
L -19 4666 
z
" transform="scale(0.015625)"/>
        <path id="DejaVuSans-61" d="M 2194 1759 
Q 1497 1759 1228 1600 
Q 959 1441 959 1056 
Q 959 750 1161 570 
Q 1363 391 1709 391 
Q 2188 391 2477 730 
Q 2766 1069 2766 1631 
L 2766 1759 
L 2194 1759 
z
M 3341 1997 
L 3341 0 
L 2766 0 
L 2766 531 
Q 2569 213 2275 61 
Q 1981 -91 1556 -91 
Q 1019 -91 701 211 
Q 384 513 384 1019 
Q 384 1609 779 1909 
Q 1175 2209 1959 2209 
L 2766 2209 
L 2766 2266 
Q 2766 2663 2505 2880 
Q 2244 3097 1772 3097 
Q 1472 3097 1187 3025 
Q 903 2953 641 2809 
L 641 3341 
Q 956 3463 1253 3523 
Q 1550 3584 1831 3584 
Q 2591 3584 2966 3190 
Q 3341 2797 3341 1997 
z
" transform="scale(0.015625)"/>
        <path id="DejaVuSans-63" d="M 3122 3366 
L 3122 2828 
Q 2878 2963 2633 3030 
Q 2388 3097 2138 3097 
Q 1578 3097 1268 2742 
Q 959 2388 959 1747 
Q 959 1106 1268 751 
Q 1578 397 2138 397 
Q 2388 397 2633 464 
Q 2878 531 3122 666 
L 3122 134 
Q 2881 22 2623 -34 
Q 2366 -91 2075 -91 
Q 1284 -91 818 406 
Q 353 903 353 1747 
Q 353 2603 823 3093 
Q 1294 3584 2113 3584 
Q 2378 3584 2631 3529 
Q 2884 3475 3122 3366 
z
" transform="scale(0.015625)"/>
        <path id="DejaVuSans-66" d="M 2375 4863 
L 2375 4384 
L 1825 4384 
Q 1516 4384 1395 4259 
Q 1275 4134 1275 3809 
L 1275 3500 
L 2222 3500 
L 2222 3053 
L 1275 3053 
L 1275 0 
L 697 0 
L 697 3053 
L 147 3053 
L 147 3500 
L 697 3500 
L 697 3744 
Q 697 4328 969 4595 
Q 1241 4863 1831 4863 
L 2375 4863 
z
" transform="scale(0.015625)"/>
        <path id="DejaVuSans-75" d="M 544 1381 
L 544 3500 
L 1119 3500 
L 1119 1403 
Q 1119 906 1312 657 
Q 1506 409 1894 409 
Q 2359 409 2629 706 
Q 2900 1003 2900 1516 
L 2900 3500 
L 3475 3500 
L 3475 0 
L 2900 0 
L 2900 538 
Q 2691 219 2414 64 
Q 2138 -91 1772 -91 
Q 1169 -91 856 284 
Q 544 659 544 1381 
z
M 1991 3584 
L 1991 3584 
z
" transform="scale(0.015625)"/>
        <path id="DejaVuSans-e7" d="M 3122 3366 
L 3122 2828 
Q 2878 2963 2633 3030 
Q 2388 3097 2138 3097 
Q 1578 3097 1268 2742 
Q 959 2388 959 1747 
Q 959 1106 1268 751 
Q 1578 397 2138 397 
Q 2388 397 2633 464 
Q 2878 531 3122 666 
L 3122 134 
Q 2881 22 2623 -34 
Q 2366 -91 2075 -91 
Q 1284 -91 818 406 
Q 353 903 353 1747 
Q 353 2603 823 3093 
Q 1294 3584 2113 3584 
Q 2378 3584 2631 3529 
Q 2884 3475 3122 3366 
z
M 2311 0 
Q 2482 -194 2566 -358 
Q 2651 -522 2651 -672 
Q 2651 -950 2463 -1092 
Q 2276 -1234 1907 -1234 
Q 1764 -1234 1628 -1215 
Q 1492 -1197 1357 -1159 
L 1357 -750 
Q 1464 -803 1579 -826 
Q 1695 -850 1842 -850 
Q 2026 -850 2120 -775 
Q 2214 -700 2214 -556 
Q 2214 -463 2146 -327 
Q 2079 -191 1939 0 
L 2311 0 
z
" transform="scale(0.015625)"/>
        <path id="DejaVuSans-e3" d="M 2194 1759 
Q 1497 1759 1228 1600 
Q 959 1441 959 1056 
Q 959 750 1161 570 
Q 1363 391 1709 391 
Q 2188 391 2477 730 
Q 2766 1069 2766 1631 
L 2766 1759 
L 2194 1759 
z
M 3341 1997 
L 3341 0 
L 2766 0 
L 2766 531 
Q 2569 213 2275 61 
Q 1981 -91 1556 -91 
Q 1019 -91 701 211 
Q 384 513 384 1019 
Q 384 1609 779 1909 
Q 1175 2209 1959 2209 
L 2766 2209 
L 2766 2266 
Q 2766 2663 2505 2880 
Q 2244 3097 1772 3097 
Q 1472 3097 1187 3025 
Q 903 2953 641 2809 
L 641 3341 
Q 956 3463 1253 3523 
Q 1550 3584 1831 3584 
Q 2591 3584 2966 3190 
Q 3341 2797 3341 1997 
z
M 1844 4281 
L 1665 4453 
Q 1597 4516 1545 4545 
Q 1494 4575 1453 4575 
Q 1334 4575 1278 4461 
Q 1222 4347 1215 4091 
L 825 4091 
Q 831 4513 990 4742 
Q 1150 4972 1434 4972 
Q 1553 4972 1653 4928 
Q 1753 4884 1869 4781 
L 2047 4609 
Q 2115 4547 2167 4517 
Q 2219 4488 2259 4488 
Q 2378 4488 2434 4602 
Q 2490 4716 2497 4972 
L 2887 4972 
Q 2881 4550 2721 4320 
Q 2562 4091 2278 4091 
Q 2159 4091 2059 4134 
Q 1959 4178 1844 4281 
z
" transform="scale(0.015625)"/>
        <path id="DejaVuSans-76" d="M 191 3500 
L 800 3500 
L 1894 563 
L 2988 3500 
L 3597 3500 
L 2284 0 
L 1503 0 
L 191 3500 
z
" transform="scale(0.015625)"/>
        <path id="DejaVuSans-ed" d="M 1322 5119 
L 1944 5119 
L 926 3944 
L 447 3944 
L 1322 5119 
z
M 603 3500 
L 1178 3500 
L 1178 0 
L 603 0 
L 603 3500 
z
M 891 3584 
L 891 3584 
z
" transform="scale(0.015625)"/>
       </defs>
       <use xlink:href="#DejaVuSans-54"/>
       <use xlink:href="#DejaVuSans-65" x="44.083984"/>
       <use xlink:href="#DejaVuSans-72" x="105.607422"/>
       <use xlink:href="#DejaVuSans-20" x="146.720703"/>
       <use xlink:href="#DejaVuSans-6d" x="178.507812"/>
       <use xlink:href="#DejaVuSans-65" x="275.919922"/>
       <use xlink:href="#DejaVuSans-64" x="337.443359"/>
       <use xlink:href="#DejaVuSans-6f" x="400.919922"/>
       <use xlink:href="#DejaVuSans-20" x="462.101562"/>
       <use xlink:href="#DejaVuSans-64" x="493.888672"/>
       <use xlink:href="#DejaVuSans-65" x="557.365234"/>
       <use xlink:href="#DejaVuSans-20" x="618.888672"/>
       <use xlink:href="#DejaVuSans-61" x="650.675781"/>
       <use xlink:href="#DejaVuSans-64" x="711.955078"/>
       <use xlink:href="#DejaVuSans-6f" x="775.431641"/>
       <use xlink:href="#DejaVuSans-65" x="836.613281"/>
       <use xlink:href="#DejaVuSans-63" x="898.136719"/>
       <use xlink:href="#DejaVuSans-65" x="953.117188"/>
       <use xlink:href="#DejaVuSans-72" x="1014.640625"/>
       <use xlink:href="#DejaVuSans-20" x="1055.753906"/>
       <use xlink:href="#DejaVuSans-65" x="1087.541016"/>
       <use xlink:href="#DejaVuSans-6d" x="1149.064453"/>
       <use xlink:href="#DejaVuSans-20" x="1246.476562"/>
       <use xlink:href="#DejaVuSans-66" x="1278.263672"/>
       <use xlink:href="#DejaVuSans-75" x="1313.46875"/>
       <use xlink:href="#DejaVuSans-6e" x="1376.847656"/>
       <use xlink:href="#DejaVuSans-e7" x="1440.226562"/>
       <use xlink:href="#DejaVuSans-e3" x="1495.207031"/>
       <use xlink:href="#DejaVuSans-6f" x="1556.486328"/>
       <use xlink:href="#DejaVuSans-20" x="1617.667969"/>
       <use xlink:href="#DejaVuSans-64" x="1649.455078"/>
       <use xlink:href="#DejaVuSans-6f" x="1712.931641"/>
       <use xlink:href="#DejaVuSans-20" x="1774.113281"/>
       <use xlink:href="#DejaVuSans-63" x="1805.900391"/>
       <use xlink:href="#DejaVuSans-6f" x="1860.880859"/>
       <use xlink:href="#DejaVuSans-72" x="1922.0625"/>
       <use xlink:href="#DejaVuSans-6f" x="1960.925781"/>
       <use xlink:href="#DejaVuSans-6e" x="2022.107422"/>
       <use xlink:href="#DejaVuSans-61" x="2085.486328"/>
       <use xlink:href="#DejaVuSans-76" x="2146.765625"/>
       <use xlink:href="#DejaVuSans-ed" x="2205.945312"/>
       <use xlink:href="#DejaVuSans-72" x="2233.728516"/>
       <use xlink:href="#DejaVuSans-75" x="2274.841797"/>
       <use xlink:href="#DejaVuSans-73" x="2338.220703"/>
      </g>
     </g>
    </g>
    <g id="ytick_2">
     <g id="text_9">
      <!-- Não ter como pagar as despesas da casa -->
      <g style="fill: #262626" transform="translate(132.397875 60.31625)scale(0.088 -0.088)">
       <defs>
        <path id="DejaVuSans-67" d="M 2906 1791 
Q 2906 2416 2648 2759 
Q 2391 3103 1925 3103 
Q 1463 3103 1205 2759 
Q 947 2416 947 1791 
Q 947 1169 1205 825 
Q 1463 481 1925 481 
Q 2391 481 2648 825 
Q 2906 1169 2906 1791 
z
M 3481 434 
Q 3481 -459 3084 -895 
Q 2688 -1331 1869 -1331 
Q 1566 -1331 1297 -1286 
Q 1028 -1241 775 -1147 
L 775 -588 
Q 1028 -725 1275 -790 
Q 1522 -856 1778 -856 
Q 2344 -856 2625 -561 
Q 2906 -266 2906 331 
L 2906 616 
Q 2728 306 2450 153 
Q 2172 0 1784 0 
Q 1141 0 747 490 
Q 353 981 353 1791 
Q 353 2603 747 3093 
Q 1141 3584 1784 3584 
Q 2172 3584 2450 3431 
Q 2728 3278 2906 2969 
L 2906 3500 
L 3481 3500 
L 3481 434 
z
" transform="scale(0.015625)"/>
       </defs>
       <use xlink:href="#DejaVuSans-4e"/>
       <use xlink:href="#DejaVuSans-e3" x="74.804688"/>
       <use xlink:href="#DejaVuSans-6f" x="136.083984"/>
       <use xlink:href="#DejaVuSans-20" x="197.265625"/>
       <use xlink:href="#DejaVuSans-74" x="229.052734"/>
       <use xlink:href="#DejaVuSans-65" x="268.261719"/>
       <use xlink:href="#DejaVuSans-72" x="329.785156"/>
       <use xlink:href="#DejaVuSans-20" x="370.898438"/>
       <use xlink:href="#DejaVuSans-63" x="402.685547"/>
       <use xlink:href="#DejaVuSans-6f" x="457.666016"/>
       <use xlink:href="#DejaVuSans-6d" x="518.847656"/>
       <use xlink:href="#DejaVuSans-6f" x="616.259766"/>
       <use xlink:href="#DejaVuSans-20" x="677.441406"/>
       <use xlink:href="#DejaVuSans-70" x="709.228516"/>
       <use xlink:href="#DejaVuSans-61" x="772.705078"/>
       <use xlink:href="#DejaVuSans-67" x="833.984375"/>
       <use xlink:href="#DejaVuSans-61" x="897.460938"/>
       <use xlink:href="#DejaVuSans-72" x="958.740234"/>
       <use xlink:href="#DejaVuSans-20" x="999.853516"/>
       <use xlink:href="#DejaVuSans-61" x="1031.640625"/>
       <use xlink:href="#DejaVuSans-73" x="1092.919922"/>
       <use xlink:href="#DejaVuSans-20" x="1145.019531"/>
       <use xlink:href="#DejaVuSans-64" x="1176.806641"/>
       <use xlink:href="#DejaVuSans-65" x="1240.283203"/>
       <use xlink:href="#DejaVuSans-73" x="1301.806641"/>
       <use xlink:href="#DejaVuSans-70" x="1353.90625"/>
       <use xlink:href="#DejaVuSans-65" x="1417.382812"/>
       <use xlink:href="#DejaVuSans-73" x="1478.90625"/>
       <use xlink:href="#DejaVuSans-61" x="1531.005859"/>
       <use xlink:href="#DejaVuSans-73" x="1592.285156"/>
       <use xlink:href="#DejaVuSans-20" x="1644.384766"/>
       <use xlink:href="#DejaVuSans-64" x="1676.171875"/>
       <use xlink:href="#DejaVuSans-61" x="1739.648438"/>
       <use xlink:href="#DejaVuSans-20" x="1800.927734"/>
       <use xlink:href="#DejaVuSans-63" x="1832.714844"/>
       <use xlink:href="#DejaVuSans-61" x="1887.695312"/>
       <use xlink:href="#DejaVuSans-73" x="1948.974609"/>
       <use xlink:href="#DejaVuSans-61" x="2001.074219"/>
      </g>
     </g>
    </g>
    <g id="ytick_3">
     <g id="text_10">
      <!-- Não ter como pagar o financiamento ou aluguel de carro/combustível -->
      <g style="fill: #262626" transform="translate(7.2 84.577313)scale(0.088 -0.088)">
       <defs>
        <path id="DejaVuSans-69" d="M 603 3500 
L 1178 3500 
L 1178 0 
L 603 0 
L 603 3500 
z
M 603 4863 
L 1178 4863 
L 1178 4134 
L 603 4134 
L 603 4863 
z
" transform="scale(0.015625)"/>
        <path id="DejaVuSans-6c" d="M 603 4863 
L 1178 4863 
L 1178 0 
L 603 0 
L 603 4863 
z
" transform="scale(0.015625)"/>
        <path id="DejaVuSans-2f" d="M 1625 4666 
L 2156 4666 
L 531 -594 
L 0 -594 
L 1625 4666 
z
" transform="scale(0.015625)"/>
        <path id="DejaVuSans-62" d="M 3116 1747 
Q 3116 2381 2855 2742 
Q 2594 3103 2138 3103 
Q 1681 3103 1420 2742 
Q 1159 2381 1159 1747 
Q 1159 1113 1420 752 
Q 1681 391 2138 391 
Q 2594 391 2855 752 
Q 3116 1113 3116 1747 
z
M 1159 2969 
Q 1341 3281 1617 3432 
Q 1894 3584 2278 3584 
Q 2916 3584 3314 3078 
Q 3713 2572 3713 1747 
Q 3713 922 3314 415 
Q 2916 -91 2278 -91 
Q 1894 -91 1617 61 
Q 1341 213 1159 525 
L 1159 0 
L 581 0 
L 581 4863 
L 1159 4863 
L 1159 2969 
z
" transform="scale(0.015625)"/>
       </defs>
       <use xlink:href="#DejaVuSans-4e"/>
       <use xlink:href="#DejaVuSans-e3" x="74.804688"/>
       <use xlink:href="#DejaVuSans-6f" x="136.083984"/>
       <use xlink:href="#DejaVuSans-20" x="197.265625"/>
       <use xlink:href="#DejaVuSans-74" x="229.052734"/>
       <use xlink:href="#DejaVuSans-65" x="268.261719"/>
       <use xlink:href="#DejaVuSans-72" x="329.785156"/>
       <use xlink:href="#DejaVuSans-20" x="370.898438"/>
       <use xlink:href="#DejaVuSans-63" x="402.685547"/>
       <use xlink:href="#DejaVuSans-6f" x="457.666016"/>
       <use xlink:href="#DejaVuSans-6d" x="518.847656"/>
       <use xlink:href="#DejaVuSans-6f" x="616.259766"/>
       <use xlink:href="#DejaVuSans-20" x="677.441406"/>
       <use xlink:href="#DejaVuSans-70" x="709.228516"/>
       <use xlink:href="#DejaVuSans-61" x="772.705078"/>
       <use xlink:href="#DejaVuSans-67" x="833.984375"/>
       <use xlink:href="#DejaVuSans-61" x="897.460938"/>
       <use xlink:href="#DejaVuSans-72" x="958.740234"/>
       <use xlink:href="#DejaVuSans-20" x="999.853516"/>
       <use xlink:href="#DejaVuSans-6f" x="1031.640625"/>
       <use xlink:href="#DejaVuSans-20" x="1092.822266"/>
       <use xlink:href="#DejaVuSans-66" x="1124.609375"/>
       <use xlink:href="#DejaVuSans-69" x="1159.814453"/>
       <use xlink:href="#DejaVuSans-6e" x="1187.597656"/>
       <use xlink:href="#DejaVuSans-61" x="1250.976562"/>
       <use xlink:href="#DejaVuSans-6e" x="1312.255859"/>
       <use xlink:href="#DejaVuSans-63" x="1375.634766"/>
       <use xlink:href="#DejaVuSans-69" x="1430.615234"/>
       <use xlink:href="#DejaVuSans-61" x="1458.398438"/>
       <use xlink:href="#DejaVuSans-6d" x="1519.677734"/>
       <use xlink:href="#DejaVuSans-65" x="1617.089844"/>
       <use xlink:href="#DejaVuSans-6e" x="1678.613281"/>
       <use xlink:href="#DejaVuSans-74" x="1741.992188"/>
       <use xlink:href="#DejaVuSans-6f" x="1781.201172"/>
       <use xlink:href="#DejaVuSans-20" x="1842.382812"/>
       <use xlink:href="#DejaVuSans-6f" x="1874.169922"/>
       <use xlink:href="#DejaVuSans-75" x="1935.351562"/>
       <use xlink:href="#DejaVuSans-20" x="1998.730469"/>
       <use xlink:href="#DejaVuSans-61" x="2030.517578"/>
       <use xlink:href="#DejaVuSans-6c" x="2091.796875"/>
       <use xlink:href="#DejaVuSans-75" x="2119.580078"/>
       <use xlink:href="#DejaVuSans-67" x="2182.958984"/>
       <use xlink:href="#DejaVuSans-75" x="2246.435547"/>
       <use xlink:href="#DejaVuSans-65" x="2309.814453"/>
       <use xlink:href="#DejaVuSans-6c" x="2371.337891"/>
       <use xlink:href="#DejaVuSans-20" x="2399.121094"/>
       <use xlink:href="#DejaVuSans-64" x="2430.908203"/>
       <use xlink:href="#DejaVuSans-65" x="2494.384766"/>
       <use xlink:href="#DejaVuSans-20" x="2555.908203"/>
       <use xlink:href="#DejaVuSans-63" x="2587.695312"/>
       <use xlink:href="#DejaVuSans-61" x="2642.675781"/>
       <use xlink:href="#DejaVuSans-72" x="2703.955078"/>
       <use xlink:href="#DejaVuSans-72" x="2743.318359"/>
       <use xlink:href="#DejaVuSans-6f" x="2782.181641"/>
       <use xlink:href="#DejaVuSans-2f" x="2843.363281"/>
       <use xlink:href="#DejaVuSans-63" x="2877.054688"/>
       <use xlink:href="#DejaVuSans-6f" x="2932.035156"/>
       <use xlink:href="#DejaVuSans-6d" x="2993.216797"/>
       <use xlink:href="#DejaVuSans-62" x="3090.628906"/>
       <use xlink:href="#DejaVuSans-75" x="3154.105469"/>
       <use xlink:href="#DejaVuSans-73" x="3217.484375"/>
       <use xlink:href="#DejaVuSans-74" x="3269.583984"/>
       <use xlink:href="#DejaVuSans-ed" x="3308.792969"/>
       <use xlink:href="#DejaVuSans-76" x="3336.576172"/>
       <use xlink:href="#DejaVuSans-65" x="3395.755859"/>
       <use xlink:href="#DejaVuSans-6c" x="3457.279297"/>
      </g>
     </g>
    </g>
    <g id="ytick_4">
     <g id="text_11">
      <!-- Não ter acesso a serviço de saúde -->
      <g style="fill: #262626" transform="translate(162.62175 108.670625)scale(0.088 -0.088)">
       <use xlink:href="#DejaVuSans-4e"/>
       <use xlink:href="#DejaVuSans-e3" x="74.804688"/>
       <use xlink:href="#DejaVuSans-6f" x="136.083984"/>
       <use xlink:href="#DejaVuSans-20" x="197.265625"/>
       <use xlink:href="#DejaVuSans-74" x="229.052734"/>
       <use xlink:href="#DejaVuSans-65" x="268.261719"/>
       <use xlink:href="#DejaVuSans-72" x="329.785156"/>
       <use xlink:href="#DejaVuSans-20" x="370.898438"/>
       <use xlink:href="#DejaVuSans-61" x="402.685547"/>
       <use xlink:href="#DejaVuSans-63" x="463.964844"/>
       <use xlink:href="#DejaVuSans-65" x="518.945312"/>
       <use xlink:href="#DejaVuSans-73" x="580.46875"/>
       <use xlink:href="#DejaVuSans-73" x="632.568359"/>
       <use xlink:href="#DejaVuSans-6f" x="684.667969"/>
       <use xlink:href="#DejaVuSans-20" x="745.849609"/>
       <use xlink:href="#DejaVuSans-61" x="777.636719"/>
       <use xlink:href="#DejaVuSans-20" x="838.916016"/>
       <use xlink:href="#DejaVuSans-73" x="870.703125"/>
       <use xlink:href="#DejaVuSans-65" x="922.802734"/>
       <use xlink:href="#DejaVuSans-72" x="984.326172"/>
       <use xlink:href="#DejaVuSans-76" x="1025.439453"/>
       <use xlink:href="#DejaVuSans-69" x="1084.619141"/>
       <use xlink:href="#DejaVuSans-e7" x="1112.402344"/>
       <use xlink:href="#DejaVuSans-6f" x="1167.382812"/>
       <use xlink:href="#DejaVuSans-20" x="1228.564453"/>
       <use xlink:href="#DejaVuSans-64" x="1260.351562"/>
       <use xlink:href="#DejaVuSans-65" x="1323.828125"/>
       <use xlink:href="#DejaVuSans-20" x="1385.351562"/>
       <use xlink:href="#DejaVuSans-73" x="1417.138672"/>
       <use xlink:href="#DejaVuSans-61" x="1469.238281"/>
       <use xlink:href="#DejaVuSans-fa" x="1530.517578"/>
       <use xlink:href="#DejaVuSans-64" x="1593.896484"/>
       <use xlink:href="#DejaVuSans-65" x="1657.373047"/>
      </g>
     </g>
    </g>
    <g id="ytick_5">
     <g id="text_12">
      <!-- Não ter como pagar sua previdência -->
      <g style="fill: #262626" transform="translate(153.421625 132.897313)scale(0.088 -0.088)">
       <defs>
        <path id="DejaVuSans-ea" d="M 3597 1894 
L 3597 1613 
L 953 1613 
Q 991 1019 1311 708 
Q 1631 397 2203 397 
Q 2534 397 2845 478 
Q 3156 559 3463 722 
L 3463 178 
Q 3153 47 2828 -22 
Q 2503 -91 2169 -91 
Q 1331 -91 842 396 
Q 353 884 353 1716 
Q 353 2575 817 3079 
Q 1281 3584 2069 3584 
Q 2775 3584 3186 3129 
Q 3597 2675 3597 1894 
z
M 3022 2063 
Q 3016 2534 2758 2815 
Q 2500 3097 2075 3097 
Q 1594 3097 1305 2825 
Q 1016 2553 972 2059 
L 3022 2063 
z
M 1801 5119 
L 2263 5119 
L 3029 3944 
L 2595 3944 
L 2032 4709 
L 1470 3944 
L 1035 3944 
L 1801 5119 
z
" transform="scale(0.015625)"/>
       </defs>
       <use xlink:href="#DejaVuSans-4e"/>
       <use xlink:href="#DejaVuSans-e3" x="74.804688"/>
       <use xlink:href="#DejaVuSans-6f" x="136.083984"/>
       <use xlink:href="#DejaVuSans-20" x="197.265625"/>
       <use xlink:href="#DejaVuSans-74" x="229.052734"/>
       <use xlink:href="#DejaVuSans-65" x="268.261719"/>
       <use xlink:href="#DejaVuSans-72" x="329.785156"/>
       <use xlink:href="#DejaVuSans-20" x="370.898438"/>
       <use xlink:href="#DejaVuSans-63" x="402.685547"/>
       <use xlink:href="#DejaVuSans-6f" x="457.666016"/>
       <use xlink:href="#DejaVuSans-6d" x="518.847656"/>
       <use xlink:href="#DejaVuSans-6f" x="616.259766"/>
       <use xlink:href="#DejaVuSans-20" x="677.441406"/>
       <use xlink:href="#DejaVuSans-70" x="709.228516"/>
       <use xlink:href="#DejaVuSans-61" x="772.705078"/>
       <use xlink:href="#DejaVuSans-67" x="833.984375"/>
       <use xlink:href="#DejaVuSans-61" x="897.460938"/>
       <use xlink:href="#DejaVuSans-72" x="958.740234"/>
       <use xlink:href="#DejaVuSans-20" x="999.853516"/>
       <use xlink:href="#DejaVuSans-73" x="1031.640625"/>
       <use xlink:href="#DejaVuSans-75" x="1083.740234"/>
       <use xlink:href="#DejaVuSans-61" x="1147.119141"/>
       <use xlink:href="#DejaVuSans-20" x="1208.398438"/>
       <use xlink:href="#DejaVuSans-70" x="1240.185547"/>
       <use xlink:href="#DejaVuSans-72" x="1303.662109"/>
       <use xlink:href="#DejaVuSans-65" x="1342.525391"/>
       <use xlink:href="#DejaVuSans-76" x="1404.048828"/>
       <use xlink:href="#DejaVuSans-69" x="1463.228516"/>
       <use xlink:href="#DejaVuSans-64" x="1491.011719"/>
       <use xlink:href="#DejaVuSans-ea" x="1554.488281"/>
       <use xlink:href="#DejaVuSans-6e" x="1616.011719"/>
       <use xlink:href="#DejaVuSans-63" x="1679.390625"/>
       <use xlink:href="#DejaVuSans-69" x="1734.371094"/>
       <use xlink:href="#DejaVuSans-61" x="1762.154297"/>
      </g>
     </g>
    </g>
    <g id="ytick_6">
     <g id="text_13">
      <!-- Não ter  as reclamações atendidas pela empresa -->
      <g style="fill: #262626" transform="translate(98.13975 156.95625)scale(0.088 -0.088)">
       <defs>
        <path id="DejaVuSans-f5" d="M 1959 3097 
Q 1497 3097 1228 2736 
Q 959 2375 959 1747 
Q 959 1119 1226 758 
Q 1494 397 1959 397 
Q 2419 397 2687 759 
Q 2956 1122 2956 1747 
Q 2956 2369 2687 2733 
Q 2419 3097 1959 3097 
z
M 1959 3584 
Q 2709 3584 3137 3096 
Q 3566 2609 3566 1747 
Q 3566 888 3137 398 
Q 2709 -91 1959 -91 
Q 1206 -91 779 398 
Q 353 888 353 1747 
Q 353 2609 779 3096 
Q 1206 3584 1959 3584 
z
M 1948 4281 
L 1769 4453 
Q 1701 4516 1649 4545 
Q 1598 4575 1557 4575 
Q 1438 4575 1382 4461 
Q 1326 4347 1319 4091 
L 929 4091 
Q 935 4513 1094 4742 
Q 1254 4972 1538 4972 
Q 1657 4972 1757 4928 
Q 1857 4884 1973 4781 
L 2151 4609 
Q 2219 4547 2271 4517 
Q 2323 4488 2363 4488 
Q 2482 4488 2538 4602 
Q 2594 4716 2601 4972 
L 2991 4972 
Q 2985 4550 2825 4320 
Q 2666 4091 2382 4091 
Q 2263 4091 2163 4134 
Q 2063 4178 1948 4281 
z
" transform="scale(0.015625)"/>
       </defs>
       <use xlink:href="#DejaVuSans-4e"/>
       <use xlink:href="#DejaVuSans-e3" x="74.804688"/>
       <use xlink:href="#DejaVuSans-6f" x="136.083984"/>
       <use xlink:href="#DejaVuSans-20" x="197.265625"/>
       <use xlink:href="#DejaVuSans-74" x="229.052734"/>
       <use xlink:href="#DejaVuSans-65" x="268.261719"/>
       <use xlink:href="#DejaVuSans-72" x="329.785156"/>
       <use xlink:href="#DejaVuSans-20" x="370.898438"/>
       <use xlink:href="#DejaVuSans-20" x="402.685547"/>
       <use xlink:href="#DejaVuSans-61" x="434.472656"/>
       <use xlink:href="#DejaVuSans-73" x="495.751953"/>
       <use xlink:href="#DejaVuSans-20" x="547.851562"/>
       <use xlink:href="#DejaVuSans-72" x="579.638672"/>
       <use xlink:href="#DejaVuSans-65" x="618.501953"/>
       <use xlink:href="#DejaVuSans-63" x="680.025391"/>
       <use xlink:href="#DejaVuSans-6c" x="735.005859"/>
       <use xlink:href="#DejaVuSans-61" x="762.789062"/>
       <use xlink:href="#DejaVuSans-6d" x="824.068359"/>
       <use xlink:href="#DejaVuSans-61" x="921.480469"/>
       <use xlink:href="#DejaVuSans-e7" x="982.759766"/>
       <use xlink:href="#DejaVuSans-f5" x="1037.740234"/>
       <use xlink:href="#DejaVuSans-65" x="1098.921875"/>
       <use xlink:href="#DejaVuSans-73" x="1160.445312"/>
       <use xlink:href="#DejaVuSans-20" x="1212.544922"/>
       <use xlink:href="#DejaVuSans-61" x="1244.332031"/>
       <use xlink:href="#DejaVuSans-74" x="1305.611328"/>
       <use xlink:href="#DejaVuSans-65" x="1344.820312"/>
       <use xlink:href="#DejaVuSans-6e" x="1406.34375"/>
       <use xlink:href="#DejaVuSans-64" x="1469.722656"/>
       <use xlink:href="#DejaVuSans-69" x="1533.199219"/>
       <use xlink:href="#DejaVuSans-64" x="1560.982422"/>
       <use xlink:href="#DejaVuSans-61" x="1624.458984"/>
       <use xlink:href="#DejaVuSans-73" x="1685.738281"/>
       <use xlink:href="#DejaVuSans-20" x="1737.837891"/>
       <use xlink:href="#DejaVuSans-70" x="1769.625"/>
       <use xlink:href="#DejaVuSans-65" x="1833.101562"/>
       <use xlink:href="#DejaVuSans-6c" x="1894.625"/>
       <use xlink:href="#DejaVuSans-61" x="1922.408203"/>
       <use xlink:href="#DejaVuSans-20" x="1983.6875"/>
       <use xlink:href="#DejaVuSans-65" x="2015.474609"/>
       <use xlink:href="#DejaVuSans-6d" x="2076.998047"/>
       <use xlink:href="#DejaVuSans-70" x="2174.410156"/>
       <use xlink:href="#DejaVuSans-72" x="2237.886719"/>
       <use xlink:href="#DejaVuSans-65" x="2276.75"/>
       <use xlink:href="#DejaVuSans-73" x="2338.273438"/>
       <use xlink:href="#DejaVuSans-61" x="2390.373047"/>
      </g>
     </g>
    </g>
    <g id="ytick_7">
     <g id="text_14">
      <!-- Não ter equipamentos de proteção contra o coronavírus -->
      <g style="fill: #262626" transform="translate(66.535375 181.217313)scale(0.088 -0.088)">
       <defs>
        <path id="DejaVuSans-71" d="M 947 1747 
Q 947 1113 1208 752 
Q 1469 391 1925 391 
Q 2381 391 2643 752 
Q 2906 1113 2906 1747 
Q 2906 2381 2643 2742 
Q 2381 3103 1925 3103 
Q 1469 3103 1208 2742 
Q 947 2381 947 1747 
z
M 2906 525 
Q 2725 213 2448 61 
Q 2172 -91 1784 -91 
Q 1150 -91 751 415 
Q 353 922 353 1747 
Q 353 2572 751 3078 
Q 1150 3584 1784 3584 
Q 2172 3584 2448 3432 
Q 2725 3281 2906 2969 
L 2906 3500 
L 3481 3500 
L 3481 -1331 
L 2906 -1331 
L 2906 525 
z
" transform="scale(0.015625)"/>
       </defs>
       <use xlink:href="#DejaVuSans-4e"/>
       <use xlink:href="#DejaVuSans-e3" x="74.804688"/>
       <use xlink:href="#DejaVuSans-6f" x="136.083984"/>
       <use xlink:href="#DejaVuSans-20" x="197.265625"/>
       <use xlink:href="#DejaVuSans-74" x="229.052734"/>
       <use xlink:href="#DejaVuSans-65" x="268.261719"/>
       <use xlink:href="#DejaVuSans-72" x="329.785156"/>
       <use xlink:href="#DejaVuSans-20" x="370.898438"/>
       <use xlink:href="#DejaVuSans-65" x="402.685547"/>
       <use xlink:href="#DejaVuSans-71" x="464.208984"/>
       <use xlink:href="#DejaVuSans-75" x="527.685547"/>
       <use xlink:href="#DejaVuSans-69" x="591.064453"/>
       <use xlink:href="#DejaVuSans-70" x="618.847656"/>
       <use xlink:href="#DejaVuSans-61" x="682.324219"/>
       <use xlink:href="#DejaVuSans-6d" x="743.603516"/>
       <use xlink:href="#DejaVuSans-65" x="841.015625"/>
       <use xlink:href="#DejaVuSans-6e" x="902.539062"/>
       <use xlink:href="#DejaVuSans-74" x="965.917969"/>
       <use xlink:href="#DejaVuSans-6f" x="1005.126953"/>
       <use xlink:href="#DejaVuSans-73" x="1066.308594"/>
       <use xlink:href="#DejaVuSans-20" x="1118.408203"/>
       <use xlink:href="#DejaVuSans-64" x="1150.195312"/>
       <use xlink:href="#DejaVuSans-65" x="1213.671875"/>
       <use xlink:href="#DejaVuSans-20" x="1275.195312"/>
       <use xlink:href="#DejaVuSans-70" x="1306.982422"/>
       <use xlink:href="#DejaVuSans-72" x="1370.458984"/>
       <use xlink:href="#DejaVuSans-6f" x="1409.322266"/>
       <use xlink:href="#DejaVuSans-74" x="1470.503906"/>
       <use xlink:href="#DejaVuSans-65" x="1509.712891"/>
       <use xlink:href="#DejaVuSans-e7" x="1571.236328"/>
       <use xlink:href="#DejaVuSans-e3" x="1626.216797"/>
       <use xlink:href="#DejaVuSans-6f" x="1687.496094"/>
       <use xlink:href="#DejaVuSans-20" x="1748.677734"/>
       <use xlink:href="#DejaVuSans-63" x="1780.464844"/>
       <use xlink:href="#DejaVuSans-6f" x="1835.445312"/>
       <use xlink:href="#DejaVuSans-6e" x="1896.626953"/>
       <use xlink:href="#DejaVuSans-74" x="1960.005859"/>
       <use xlink:href="#DejaVuSans-72" x="1999.214844"/>
       <use xlink:href="#DejaVuSans-61" x="2040.328125"/>
       <use xlink:href="#DejaVuSans-20" x="2101.607422"/>
       <use xlink:href="#DejaVuSans-6f" x="2133.394531"/>
       <use xlink:href="#DejaVuSans-20" x="2194.576172"/>
       <use xlink:href="#DejaVuSans-63" x="2226.363281"/>
       <use xlink:href="#DejaVuSans-6f" x="2281.34375"/>
       <use xlink:href="#DejaVuSans-72" x="2342.525391"/>
       <use xlink:href="#DejaVuSans-6f" x="2381.388672"/>
       <use xlink:href="#DejaVuSans-6e" x="2442.570312"/>
       <use xlink:href="#DejaVuSans-61" x="2505.949219"/>
       <use xlink:href="#DejaVuSans-76" x="2567.228516"/>
       <use xlink:href="#DejaVuSans-ed" x="2626.408203"/>
       <use xlink:href="#DejaVuSans-72" x="2654.191406"/>
       <use xlink:href="#DejaVuSans-75" x="2695.304688"/>
       <use xlink:href="#DejaVuSans-73" x="2758.683594"/>
      </g>
     </g>
    </g>
    <g id="ytick_8">
     <g id="text_15">
      <!-- Não ter acesso a informações confiáveis sobre o tema -->
      <g style="fill: #262626" transform="translate(74.9325 205.310625)scale(0.088 -0.088)">
       <defs>
        <path id="DejaVuSans-e1" d="M 2194 1759 
Q 1497 1759 1228 1600 
Q 959 1441 959 1056 
Q 959 750 1161 570 
Q 1363 391 1709 391 
Q 2188 391 2477 730 
Q 2766 1069 2766 1631 
L 2766 1759 
L 2194 1759 
z
M 3341 1997 
L 3341 0 
L 2766 0 
L 2766 531 
Q 2569 213 2275 61 
Q 1981 -91 1556 -91 
Q 1019 -91 701 211 
Q 384 513 384 1019 
Q 384 1609 779 1909 
Q 1175 2209 1959 2209 
L 2766 2209 
L 2766 2266 
Q 2766 2663 2505 2880 
Q 2244 3097 1772 3097 
Q 1472 3097 1187 3025 
Q 903 2953 641 2809 
L 641 3341 
Q 956 3463 1253 3523 
Q 1550 3584 1831 3584 
Q 2591 3584 2966 3190 
Q 3341 2797 3341 1997 
z
M 2290 5119 
L 2912 5119 
L 1894 3944 
L 1415 3944 
L 2290 5119 
z
" transform="scale(0.015625)"/>
       </defs>
       <use xlink:href="#DejaVuSans-4e"/>
       <use xlink:href="#DejaVuSans-e3" x="74.804688"/>
       <use xlink:href="#DejaVuSans-6f" x="136.083984"/>
       <use xlink:href="#DejaVuSans-20" x="197.265625"/>
       <use xlink:href="#DejaVuSans-74" x="229.052734"/>
       <use xlink:href="#DejaVuSans-65" x="268.261719"/>
       <use xlink:href="#DejaVuSans-72" x="329.785156"/>
       <use xlink:href="#DejaVuSans-20" x="370.898438"/>
       <use xlink:href="#DejaVuSans-61" x="402.685547"/>
       <use xlink:href="#DejaVuSans-63" x="463.964844"/>
       <use xlink:href="#DejaVuSans-65" x="518.945312"/>
       <use xlink:href="#DejaVuSans-73" x="580.46875"/>
       <use xlink:href="#DejaVuSans-73" x="632.568359"/>
       <use xlink:href="#DejaVuSans-6f" x="684.667969"/>
       <use xlink:href="#DejaVuSans-20" x="745.849609"/>
       <use xlink:href="#DejaVuSans-61" x="777.636719"/>
       <use xlink:href="#DejaVuSans-20" x="838.916016"/>
       <use xlink:href="#DejaVuSans-69" x="870.703125"/>
       <use xlink:href="#DejaVuSans-6e" x="898.486328"/>
       <use xlink:href="#DejaVuSans-66" x="961.865234"/>
       <use xlink:href="#DejaVuSans-6f" x="997.070312"/>
       <use xlink:href="#DejaVuSans-72" x="1058.251953"/>
       <use xlink:href="#DejaVuSans-6d" x="1097.615234"/>
       <use xlink:href="#DejaVuSans-61" x="1195.027344"/>
       <use xlink:href="#DejaVuSans-e7" x="1256.306641"/>
       <use xlink:href="#DejaVuSans-f5" x="1311.287109"/>
       <use xlink:href="#DejaVuSans-65" x="1372.46875"/>
       <use xlink:href="#DejaVuSans-73" x="1433.992188"/>
       <use xlink:href="#DejaVuSans-20" x="1486.091797"/>
       <use xlink:href="#DejaVuSans-63" x="1517.878906"/>
       <use xlink:href="#DejaVuSans-6f" x="1572.859375"/>
       <use xlink:href="#DejaVuSans-6e" x="1634.041016"/>
       <use xlink:href="#DejaVuSans-66" x="1697.419922"/>
       <use xlink:href="#DejaVuSans-69" x="1732.625"/>
       <use xlink:href="#DejaVuSans-e1" x="1760.408203"/>
       <use xlink:href="#DejaVuSans-76" x="1821.6875"/>
       <use xlink:href="#DejaVuSans-65" x="1880.867188"/>
       <use xlink:href="#DejaVuSans-69" x="1942.390625"/>
       <use xlink:href="#DejaVuSans-73" x="1970.173828"/>
       <use xlink:href="#DejaVuSans-20" x="2022.273438"/>
       <use xlink:href="#DejaVuSans-73" x="2054.060547"/>
       <use xlink:href="#DejaVuSans-6f" x="2106.160156"/>
       <use xlink:href="#DejaVuSans-62" x="2167.341797"/>
       <use xlink:href="#DejaVuSans-72" x="2230.818359"/>
       <use xlink:href="#DejaVuSans-65" x="2269.681641"/>
       <use xlink:href="#DejaVuSans-20" x="2331.205078"/>
       <use xlink:href="#DejaVuSans-6f" x="2362.992188"/>
       <use xlink:href="#DejaVuSans-20" x="2424.173828"/>
       <use xlink:href="#DejaVuSans-74" x="2455.960938"/>
       <use xlink:href="#DejaVuSans-65" x="2495.169922"/>
       <use xlink:href="#DejaVuSans-6d" x="2556.693359"/>
       <use xlink:href="#DejaVuSans-61" x="2654.105469"/>
      </g>
     </g>
    </g>
    <g id="ytick_9">
     <g id="text_16">
      <!-- Outros -->
      <g style="fill: #262626" transform="translate(284.544375 229.361313)scale(0.088 -0.088)">
       <defs>
        <path id="DejaVuSans-4f" d="M 2522 4238 
Q 1834 4238 1429 3725 
Q 1025 3213 1025 2328 
Q 1025 1447 1429 934 
Q 1834 422 2522 422 
Q 3209 422 3611 934 
Q 4013 1447 4013 2328 
Q 4013 3213 3611 3725 
Q 3209 4238 2522 4238 
z
M 2522 4750 
Q 3503 4750 4090 4092 
Q 4678 3434 4678 2328 
Q 4678 1225 4090 567 
Q 3503 -91 2522 -91 
Q 1538 -91 948 565 
Q 359 1222 359 2328 
Q 359 3434 948 4092 
Q 1538 4750 2522 4750 
z
" transform="scale(0.015625)"/>
       </defs>
       <use xlink:href="#DejaVuSans-4f"/>
       <use xlink:href="#DejaVuSans-75" x="78.710938"/>
       <use xlink:href="#DejaVuSans-74" x="142.089844"/>
       <use xlink:href="#DejaVuSans-72" x="181.298828"/>
       <use xlink:href="#DejaVuSans-6f" x="220.162109"/>
       <use xlink:href="#DejaVuSans-73" x="281.34375"/>
      </g>
     </g>
    </g>
   </g>
   <g id="patch_3">
    <path d="M 322.186875 23.074 
L 641.044018 23.074 
L 641.044018 42.402 
L 322.186875 42.402 
z
" clip-path="url(#pfe9ca8172d)" style="fill: #3274a1; opacity: 0.99; stroke: #ffffff; stroke-width: 0.8; stroke-linejoin: miter"/>
   </g>
   <g id="patch_4">
    <path d="M 322.186875 47.234 
L 618.458304 47.234 
L 618.458304 66.562 
L 322.186875 66.562 
z
" clip-path="url(#pfe9ca8172d)" style="fill: #e1812c; opacity: 0.99; stroke: #ffffff; stroke-width: 0.8; stroke-linejoin: miter"/>
   </g>
   <g id="patch_5">
    <path d="M 322.186875 71.394 
L 579.929732 71.394 
L 579.929732 90.722 
L 322.186875 90.722 
z
" clip-path="url(#pfe9ca8172d)" style="fill: #3a923a; opacity: 0.99; stroke: #ffffff; stroke-width: 0.8; stroke-linejoin: miter"/>
   </g>
   <g id="patch_6">
    <path d="M 322.186875 95.554 
L 510.844018 95.554 
L 510.844018 114.882 
L 322.186875 114.882 
z
" clip-path="url(#pfe9ca8172d)" style="fill: #c03d3e; opacity: 0.99; stroke: #ffffff; stroke-width: 0.8; stroke-linejoin: miter"/>
   </g>
   <g id="patch_7">
    <path d="M 322.186875 119.714 
L 435.115446 119.714 
L 435.115446 139.042 
L 322.186875 139.042 
z
" clip-path="url(#pfe9ca8172d)" style="fill: #9372b2; opacity: 0.99; stroke: #ffffff; stroke-width: 0.8; stroke-linejoin: miter"/>
   </g>
   <g id="patch_8">
    <path d="M 322.186875 143.874 
L 424.486875 143.874 
L 424.486875 163.202 
L 322.186875 163.202 
z
" clip-path="url(#pfe9ca8172d)" style="fill: #845b53; opacity: 0.99; stroke: #ffffff; stroke-width: 0.8; stroke-linejoin: miter"/>
   </g>
   <g id="patch_9">
    <path d="M 322.186875 168.034 
L 411.201161 168.034 
L 411.201161 187.362 
L 322.186875 187.362 
z
" clip-path="url(#pfe9ca8172d)" style="fill: #d684bd; opacity: 0.99; stroke: #ffffff; stroke-width: 0.8; stroke-linejoin: miter"/>
   </g>
   <g id="patch_10">
    <path d="M 322.186875 192.194 
L 395.258304 192.194 
L 395.258304 211.522 
L 322.186875 211.522 
z
" clip-path="url(#pfe9ca8172d)" style="fill: #7f7f7f; opacity: 0.99; stroke: #ffffff; stroke-width: 0.8; stroke-linejoin: miter"/>
   </g>
   <g id="patch_11">
    <path d="M 322.186875 216.354 
L 346.101161 216.354 
L 346.101161 235.682 
L 322.186875 235.682 
z
" clip-path="url(#pfe9ca8172d)" style="fill: #a9aa35; opacity: 0.99; stroke: #ffffff; stroke-width: 0.8; stroke-linejoin: miter"/>
   </g>
   <g id="patch_12">
    <path d="M 322.186875 238.098 
L 322.186875 20.658 
" style="fill: none; stroke: #cccccc; stroke-linejoin: miter; stroke-linecap: square"/>
   </g>
   <g id="patch_13">
    <path d="M 656.986875 238.098 
L 656.986875 20.658 
" style="fill: none; stroke: #cccccc; stroke-linejoin: miter; stroke-linecap: square"/>
   </g>
   <g id="patch_14">
    <path d="M 322.186875 238.098 
L 656.986875 238.098 
" style="fill: none; stroke: #cccccc; stroke-linejoin: miter; stroke-linecap: square"/>
   </g>
   <g id="patch_15">
    <path d="M 322.186875 20.658 
L 656.986875 20.658 
" style="fill: none; stroke: #cccccc; stroke-linejoin: miter; stroke-linecap: square"/>
   </g>
   <g id="text_17">
    <!-- 89.9% -->
    <g transform="translate(624.391768 40.4055)scale(0.096 -0.096)">
     <defs>
      <path id="DejaVuSans-Bold-38" d="M 2228 2088 
Q 1891 2088 1709 1903 
Q 1528 1719 1528 1375 
Q 1528 1031 1709 848 
Q 1891 666 2228 666 
Q 2563 666 2741 848 
Q 2919 1031 2919 1375 
Q 2919 1722 2741 1905 
Q 2563 2088 2228 2088 
z
M 1350 2484 
Q 925 2613 709 2878 
Q 494 3144 494 3541 
Q 494 4131 934 4440 
Q 1375 4750 2228 4750 
Q 3075 4750 3515 4442 
Q 3956 4134 3956 3541 
Q 3956 3144 3739 2878 
Q 3522 2613 3097 2484 
Q 3572 2353 3814 2058 
Q 4056 1763 4056 1313 
Q 4056 619 3595 264 
Q 3134 -91 2228 -91 
Q 1319 -91 855 264 
Q 391 619 391 1313 
Q 391 1763 633 2058 
Q 875 2353 1350 2484 
z
M 1631 3419 
Q 1631 3141 1786 2991 
Q 1941 2841 2228 2841 
Q 2509 2841 2662 2991 
Q 2816 3141 2816 3419 
Q 2816 3697 2662 3845 
Q 2509 3994 2228 3994 
Q 1941 3994 1786 3844 
Q 1631 3694 1631 3419 
z
" transform="scale(0.015625)"/>
      <path id="DejaVuSans-Bold-39" d="M 641 103 
L 641 966 
Q 928 831 1190 764 
Q 1453 697 1709 697 
Q 2247 697 2547 995 
Q 2847 1294 2900 1881 
Q 2688 1725 2447 1647 
Q 2206 1569 1925 1569 
Q 1209 1569 770 1986 
Q 331 2403 331 3084 
Q 331 3838 820 4291 
Q 1309 4744 2131 4744 
Q 3044 4744 3544 4128 
Q 4044 3513 4044 2388 
Q 4044 1231 3459 570 
Q 2875 -91 1856 -91 
Q 1528 -91 1228 -42 
Q 928 6 641 103 
z
M 2125 2350 
Q 2441 2350 2600 2554 
Q 2759 2759 2759 3169 
Q 2759 3575 2600 3781 
Q 2441 3988 2125 3988 
Q 1809 3988 1650 3781 
Q 1491 3575 1491 3169 
Q 1491 2759 1650 2554 
Q 1809 2350 2125 2350 
z
" transform="scale(0.015625)"/>
      <path id="DejaVuSans-Bold-2e" d="M 653 1209 
L 1778 1209 
L 1778 0 
L 653 0 
L 653 1209 
z
" transform="scale(0.015625)"/>
      <path id="DejaVuSans-Bold-25" d="M 4959 1925 
Q 4738 1925 4616 1733 
Q 4494 1541 4494 1184 
Q 4494 825 4614 633 
Q 4734 441 4959 441 
Q 5184 441 5303 633 
Q 5422 825 5422 1184 
Q 5422 1541 5301 1733 
Q 5181 1925 4959 1925 
z
M 4959 2450 
Q 5541 2450 5875 2112 
Q 6209 1775 6209 1184 
Q 6209 594 5875 251 
Q 5541 -91 4959 -91 
Q 4378 -91 4042 251 
Q 3706 594 3706 1184 
Q 3706 1772 4042 2111 
Q 4378 2450 4959 2450 
z
M 2094 -91 
L 1403 -91 
L 4319 4750 
L 5013 4750 
L 2094 -91 
z
M 1453 4750 
Q 2034 4750 2367 4411 
Q 2700 4072 2700 3481 
Q 2700 2891 2367 2550 
Q 2034 2209 1453 2209 
Q 872 2209 539 2550 
Q 206 2891 206 3481 
Q 206 4072 539 4411 
Q 872 4750 1453 4750 
z
M 1453 4225 
Q 1228 4225 1106 4031 
Q 984 3838 984 3481 
Q 984 3122 1106 2926 
Q 1228 2731 1453 2731 
Q 1678 2731 1798 2926 
Q 1919 3122 1919 3481 
Q 1919 3838 1797 4031 
Q 1675 4225 1453 4225 
z
" transform="scale(0.015625)"/>
     </defs>
     <use xlink:href="#DejaVuSans-Bold-38"/>
     <use xlink:href="#DejaVuSans-Bold-39" x="69.580078"/>
     <use xlink:href="#DejaVuSans-Bold-2e" x="139.160156"/>
     <use xlink:href="#DejaVuSans-Bold-39" x="177.148438"/>
     <use xlink:href="#DejaVuSans-Bold-25" x="246.728516"/>
    </g>
   </g>
   <g id="text_18">
    <!-- 83.5% -->
    <g transform="translate(601.806054 64.5655)scale(0.096 -0.096)">
     <defs>
      <path id="DejaVuSans-Bold-33" d="M 2981 2516 
Q 3453 2394 3698 2092 
Q 3944 1791 3944 1325 
Q 3944 631 3412 270 
Q 2881 -91 1863 -91 
Q 1503 -91 1142 -33 
Q 781 25 428 141 
L 428 1069 
Q 766 900 1098 814 
Q 1431 728 1753 728 
Q 2231 728 2486 893 
Q 2741 1059 2741 1369 
Q 2741 1688 2480 1852 
Q 2219 2016 1709 2016 
L 1228 2016 
L 1228 2791 
L 1734 2791 
Q 2188 2791 2409 2933 
Q 2631 3075 2631 3366 
Q 2631 3634 2415 3781 
Q 2200 3928 1806 3928 
Q 1516 3928 1219 3862 
Q 922 3797 628 3669 
L 628 4550 
Q 984 4650 1334 4700 
Q 1684 4750 2022 4750 
Q 2931 4750 3382 4451 
Q 3834 4153 3834 3553 
Q 3834 3144 3618 2883 
Q 3403 2622 2981 2516 
z
" transform="scale(0.015625)"/>
      <path id="DejaVuSans-Bold-35" d="M 678 4666 
L 3669 4666 
L 3669 3781 
L 1638 3781 
L 1638 3059 
Q 1775 3097 1914 3117 
Q 2053 3138 2203 3138 
Q 3056 3138 3531 2711 
Q 4006 2284 4006 1522 
Q 4006 766 3489 337 
Q 2972 -91 2053 -91 
Q 1656 -91 1267 -14 
Q 878 63 494 219 
L 494 1166 
Q 875 947 1217 837 
Q 1559 728 1863 728 
Q 2300 728 2551 942 
Q 2803 1156 2803 1522 
Q 2803 1891 2551 2103 
Q 2300 2316 1863 2316 
Q 1603 2316 1309 2248 
Q 1016 2181 678 2041 
L 678 4666 
z
" transform="scale(0.015625)"/>
     </defs>
     <use xlink:href="#DejaVuSans-Bold-38"/>
     <use xlink:href="#DejaVuSans-Bold-33" x="69.580078"/>
     <use xlink:href="#DejaVuSans-Bold-2e" x="139.160156"/>
     <use xlink:href="#DejaVuSans-Bold-35" x="177.148438"/>
     <use xlink:href="#DejaVuSans-Bold-25" x="246.728516"/>
    </g>
   </g>
   <g id="text_19">
    <!-- 72.7% -->
    <g transform="translate(563.277482 88.7255)scale(0.096 -0.096)">
     <defs>
      <path id="DejaVuSans-Bold-37" d="M 428 4666 
L 3944 4666 
L 3944 3988 
L 2125 0 
L 953 0 
L 2675 3781 
L 428 3781 
L 428 4666 
z
" transform="scale(0.015625)"/>
      <path id="DejaVuSans-Bold-32" d="M 1844 884 
L 3897 884 
L 3897 0 
L 506 0 
L 506 884 
L 2209 2388 
Q 2438 2594 2547 2791 
Q 2656 2988 2656 3200 
Q 2656 3528 2436 3728 
Q 2216 3928 1850 3928 
Q 1569 3928 1234 3808 
Q 900 3688 519 3450 
L 519 4475 
Q 925 4609 1322 4679 
Q 1719 4750 2100 4750 
Q 2938 4750 3402 4381 
Q 3866 4013 3866 3353 
Q 3866 2972 3669 2642 
Q 3472 2313 2841 1759 
L 1844 884 
z
" transform="scale(0.015625)"/>
     </defs>
     <use xlink:href="#DejaVuSans-Bold-37"/>
     <use xlink:href="#DejaVuSans-Bold-32" x="69.580078"/>
     <use xlink:href="#DejaVuSans-Bold-2e" x="139.160156"/>
     <use xlink:href="#DejaVuSans-Bold-37" x="177.148438"/>
     <use xlink:href="#DejaVuSans-Bold-25" x="246.728516"/>
    </g>
   </g>
   <g id="text_20">
    <!-- 53.2% -->
    <g transform="translate(494.191768 112.8855)scale(0.096 -0.096)">
     <use xlink:href="#DejaVuSans-Bold-35"/>
     <use xlink:href="#DejaVuSans-Bold-33" x="69.580078"/>
     <use xlink:href="#DejaVuSans-Bold-2e" x="139.160156"/>
     <use xlink:href="#DejaVuSans-Bold-32" x="177.148438"/>
     <use xlink:href="#DejaVuSans-Bold-25" x="246.728516"/>
    </g>
   </g>
   <g id="text_21">
    <!-- 31.8% -->
    <g transform="translate(418.463196 137.0455)scale(0.096 -0.096)">
     <defs>
      <path id="DejaVuSans-Bold-31" d="M 750 831 
L 1813 831 
L 1813 3847 
L 722 3622 
L 722 4441 
L 1806 4666 
L 2950 4666 
L 2950 831 
L 4013 831 
L 4013 0 
L 750 0 
L 750 831 
z
" transform="scale(0.015625)"/>
     </defs>
     <use xlink:href="#DejaVuSans-Bold-33"/>
     <use xlink:href="#DejaVuSans-Bold-31" x="69.580078"/>
     <use xlink:href="#DejaVuSans-Bold-2e" x="139.160156"/>
     <use xlink:href="#DejaVuSans-Bold-38" x="177.148438"/>
     <use xlink:href="#DejaVuSans-Bold-25" x="246.728516"/>
    </g>
   </g>
   <g id="text_22">
    <!-- 28.8% -->
    <g transform="translate(407.834625 161.2055)scale(0.096 -0.096)">
     <use xlink:href="#DejaVuSans-Bold-32"/>
     <use xlink:href="#DejaVuSans-Bold-38" x="69.580078"/>
     <use xlink:href="#DejaVuSans-Bold-2e" x="139.160156"/>
     <use xlink:href="#DejaVuSans-Bold-38" x="177.148438"/>
     <use xlink:href="#DejaVuSans-Bold-25" x="246.728516"/>
    </g>
   </g>
   <g id="text_23">
    <!-- 25.1% -->
    <g transform="translate(394.548911 185.3655)scale(0.096 -0.096)">
     <use xlink:href="#DejaVuSans-Bold-32"/>
     <use xlink:href="#DejaVuSans-Bold-35" x="69.580078"/>
     <use xlink:href="#DejaVuSans-Bold-2e" x="139.160156"/>
     <use xlink:href="#DejaVuSans-Bold-31" x="177.148438"/>
     <use xlink:href="#DejaVuSans-Bold-25" x="246.728516"/>
    </g>
   </g>
   <g id="text_24">
    <!-- 20.6% -->
    <g transform="translate(378.606054 209.5255)scale(0.096 -0.096)">
     <defs>
      <path id="DejaVuSans-Bold-30" d="M 2944 2338 
Q 2944 3213 2780 3570 
Q 2616 3928 2228 3928 
Q 1841 3928 1675 3570 
Q 1509 3213 1509 2338 
Q 1509 1453 1675 1090 
Q 1841 728 2228 728 
Q 2613 728 2778 1090 
Q 2944 1453 2944 2338 
z
M 4147 2328 
Q 4147 1169 3647 539 
Q 3147 -91 2228 -91 
Q 1306 -91 806 539 
Q 306 1169 306 2328 
Q 306 3491 806 4120 
Q 1306 4750 2228 4750 
Q 3147 4750 3647 4120 
Q 4147 3491 4147 2328 
z
" transform="scale(0.015625)"/>
      <path id="DejaVuSans-Bold-36" d="M 2316 2303 
Q 2000 2303 1842 2098 
Q 1684 1894 1684 1484 
Q 1684 1075 1842 870 
Q 2000 666 2316 666 
Q 2634 666 2792 870 
Q 2950 1075 2950 1484 
Q 2950 1894 2792 2098 
Q 2634 2303 2316 2303 
z
M 3803 4544 
L 3803 3681 
Q 3506 3822 3243 3889 
Q 2981 3956 2731 3956 
Q 2194 3956 1894 3657 
Q 1594 3359 1544 2772 
Q 1750 2925 1990 3001 
Q 2231 3078 2516 3078 
Q 3231 3078 3670 2659 
Q 4109 2241 4109 1563 
Q 4109 813 3618 361 
Q 3128 -91 2303 -91 
Q 1394 -91 895 523 
Q 397 1138 397 2266 
Q 397 3422 980 4083 
Q 1563 4744 2578 4744 
Q 2900 4744 3203 4694 
Q 3506 4644 3803 4544 
z
" transform="scale(0.015625)"/>
     </defs>
     <use xlink:href="#DejaVuSans-Bold-32"/>
     <use xlink:href="#DejaVuSans-Bold-30" x="69.580078"/>
     <use xlink:href="#DejaVuSans-Bold-2e" x="139.160156"/>
     <use xlink:href="#DejaVuSans-Bold-36" x="177.148438"/>
     <use xlink:href="#DejaVuSans-Bold-25" x="246.728516"/>
    </g>
   </g>
   <g id="text_25">
    <!-- 6.7% -->
    <g transform="translate(332.788661 233.6855)scale(0.096 -0.096)">
     <use xlink:href="#DejaVuSans-Bold-36"/>
     <use xlink:href="#DejaVuSans-Bold-2e" x="69.580078"/>
     <use xlink:href="#DejaVuSans-Bold-37" x="107.568359"/>
     <use xlink:href="#DejaVuSans-Bold-25" x="177.148438"/>
    </g>
   </g>
   <g id="text_26">
    <!-- Preocupações na pandemia -->
    <g style="fill: #262626" transform="translate(423.304125 14.658)scale(0.096 -0.096)">
     <defs>
      <path id="DejaVuSans-50" d="M 1259 4147 
L 1259 2394 
L 2053 2394 
Q 2494 2394 2734 2622 
Q 2975 2850 2975 3272 
Q 2975 3691 2734 3919 
Q 2494 4147 2053 4147 
L 1259 4147 
z
M 628 4666 
L 2053 4666 
Q 2838 4666 3239 4311 
Q 3641 3956 3641 3272 
Q 3641 2581 3239 2228 
Q 2838 1875 2053 1875 
L 1259 1875 
L 1259 0 
L 628 0 
L 628 4666 
z
" transform="scale(0.015625)"/>
     </defs>
     <use xlink:href="#DejaVuSans-50"/>
     <use xlink:href="#DejaVuSans-72" x="58.552734"/>
     <use xlink:href="#DejaVuSans-65" x="97.416016"/>
     <use xlink:href="#DejaVuSans-6f" x="158.939453"/>
     <use xlink:href="#DejaVuSans-63" x="220.121094"/>
     <use xlink:href="#DejaVuSans-75" x="275.101562"/>
     <use xlink:href="#DejaVuSans-70" x="338.480469"/>
     <use xlink:href="#DejaVuSans-61" x="401.957031"/>
     <use xlink:href="#DejaVuSans-e7" x="463.236328"/>
     <use xlink:href="#DejaVuSans-f5" x="518.216797"/>
     <use xlink:href="#DejaVuSans-65" x="579.398438"/>
     <use xlink:href="#DejaVuSans-73" x="640.921875"/>
     <use xlink:href="#DejaVuSans-20" x="693.021484"/>
     <use xlink:href="#DejaVuSans-6e" x="724.808594"/>
     <use xlink:href="#DejaVuSans-61" x="788.1875"/>
     <use xlink:href="#DejaVuSans-20" x="849.466797"/>
     <use xlink:href="#DejaVuSans-70" x="881.253906"/>
     <use xlink:href="#DejaVuSans-61" x="944.730469"/>
     <use xlink:href="#DejaVuSans-6e" x="1006.009766"/>
     <use xlink:href="#DejaVuSans-64" x="1069.388672"/>
     <use xlink:href="#DejaVuSans-65" x="1132.865234"/>
     <use xlink:href="#DejaVuSans-6d" x="1194.388672"/>
     <use xlink:href="#DejaVuSans-69" x="1291.800781"/>
     <use xlink:href="#DejaVuSans-61" x="1319.583984"/>
    </g>
   </g>
  </g>
 </g>
 <defs>
  <clipPath id="pfe9ca8172d">
   <rect x="322.186875" y="20.658" width="334.8" height="217.44"/>
  </clipPath>
 </defs>
</svg>
